<svg width="120" height="27" fill="none" xmlns="http://www.w3.org/2000/svg"><g clip-path="url(#clip0)" fill="#000"><path d="M10.324 23.151c-3.443 0-5.846-2.785-5.846-6.219s2.368-6.219 5.622-6.219c2.26 0 3.701.99 5.07 2.419l2.777-2.995c-1.815-1.976-4.108-3.333-7.807-3.333C4.292 6.811 0 11.427 0 16.923c0 5.57 4.292 10.075 10.1 10.075 3.813 0 6.07-1.502 7.993-3.628l-2.7-2.637c-1.408 1.43-2.962 2.418-5.07 2.418zM120.001 22.317H115.5v4.457h4.501v-4.457zM84.035 23.151c-3.443 0-5.846-2.785-5.846-6.219s2.368-6.219 5.622-6.219c2.26 0 3.701.99 5.07 2.419l2.777-2.995c-1.815-1.976-4.11-3.333-7.807-3.333-5.848 0-10.14 4.607-10.14 10.112 0 5.57 4.292 10.075 10.1 10.075 3.813 0 6.07-1.502 7.993-3.628l-2.7-2.63c-1.417 1.43-2.962 2.418-5.07 2.418zM102.945 6.811c-5.583 0-9.538 4.545-9.538 10.075 0 6.047 4.364 10.112 10.029 10.112 3.587 0 6.141-1.428 7.99-3.628l-2.626-2.303c-1.556 1.502-3.108 2.303-5.292 2.303-2.887 0-5.144-1.757-5.623-4.908h14.355c.037-.23.075-.954.075-1.244-.01-5.572-3.155-10.407-9.37-10.407zm-5.106 8.72c.404-2.994 2.326-5.092 5.068-5.092 2.959 0 4.653 2.234 4.958 5.093H97.839zM52.44 6.811c-5.994 0-10.435 4.58-10.435 10.112 0 5.57 4.403 10.075 10.36 10.075 6.033 0 10.469-4.58 10.469-10.075.002-5.606-4.4-10.112-10.394-10.112zm0 16.34c-3.477 0-5.957-2.858-5.957-6.219 0-3.443 2.294-6.219 5.883-6.219 3.515 0 5.995 2.822 5.995 6.22 0 3.397-2.294 6.218-5.92 6.218zM70.507 7.057h-4.485v19.715h4.485V7.057zM70.524.028h-4.502v4.457h4.502V.028zM25.762 26.773h-4.48V.003h4.48v10.411a7.015 7.015 0 012.597-2.513 7.101 7.101 0 013.516-.898c4.869 0 6.962 3.699 6.962 7.05v12.713h-4.48V15.772s.29-4.734-4.187-4.734c-4.478 0-4.42 4.734-4.42 4.734l.012 11z"/></g><defs><clipPath id="clip0"><path fill="#fff" d="M0 0h120v27H0z"/></clipPath></defs></svg>